# xmcd
#
# Track frame offsets:
#	150
#	27188
#	50636
#	74457
#	95686
#	116744
#	140671
#	157247
#	177632
#	192685
#
# Disc length: 3102 seconds
#
# Revision: 0
# Processed by: cddbd v1.5.2PL0 Copyright (c) Steve Scherf et al.
# Submitted via: EasyCDDAExtractor 9.0.0.1
#
DISCID=a20c1c0a
DTITLE=Bao Yen - Nho Me
DYEAR=1999
DGENRE=Blues
TTITLE0=Nho Me
TTITLE1=Tra Nhau Ngay Thang Cu
TTITLE2=Tim Yeu
TTITLE3=Huong Tham
TTITLE4=Hay Lai Day Voi Anh
TTITLE5=Nho Me 2
TTITLE6=Co Mot Dong Song Da Qua Doi
TTITLE7=Hen Uoc Mua Xuan
TTITLE8=Biet Dau Nguon Coi
TTITLE9=Loi Thu Xua
EXTD=
EXTT0=
EXTT1=
EXTT2=
EXTT3=
EXTT4=
EXTT5=
EXTT6=
EXTT7=
EXTT8=
EXTT9=
PLAYORDER=
